<svg xmlns="http://www.w3.org/2000/svg" viewBox="0 0 499.183 84.9091"><title>Asset 1</title><g id="Layer_2" data-name="Layer 2"><g id="Layer_1-2" data-name="Layer 1"><path d="M110.0688,27.1947a3.0265,3.0265,0,1,1-6.0531,0,2.9777,2.9777,0,0,1,2.8994-3.054q.0776-.002.1552,0a2.9,2.9,0,0,1,3.0008,2.7958Q110.0757,27.0656,110.0688,27.1947Zm-5.4423,34.43V34.747h4.887V61.6247Z" style="fill:#4482fb"/><path d="M117.6211,42.0217c0-2.7763-.0555-5.0529-.2221-7.2747h4.3318l.2776,4.4428h.1111a9.8838,9.8838,0,0,1,8.885-5.0536c3.721,0,9.4957,2.2217,9.4957,11.44V61.6247h-4.8837V46.134c0-4.3318-1.6109-7.941-6.2217-7.941a6.9422,6.9422,0,0,0-6.5528,4.9981,7.0243,7.0243,0,0,0-.3345,2.2746v16.16h-4.8837Z" style="fill:#4482fb"/><path d="M147.7748,56.6266a12.804,12.804,0,0,0,6.4418,1.9441c3.5544,0,5.2182-1.7775,5.2182-3.9986,0-2.3321-1.3882-3.6092-4.9981-4.9426-4.8308-1.7213-7.1081-4.3866-7.1081-7.6078,0-4.3311,3.4989-7.8855,9.2743-7.8855a13.4114,13.4114,0,0,1,6.6083,1.6665l-1.2223,3.5537a10.4591,10.4591,0,0,0-5.4972-1.5547c-2.8881,0-4.4983,1.6658-4.4983,3.6648,0,2.2217,1.61,3.2212,5.1091,4.5539,4.6643,1.7769,7.0526,4.11,7.0526,8.1076,0,4.72-3.6654,8.0521-10.0517,8.0521a15.3307,15.3307,0,0,1-7.5523-1.8324Z" style="fill:#4482fb"/><path d="M175.874,27.1947a3.0265,3.0265,0,0,1-6.0524,0,2.9777,2.9777,0,0,1,2.8994-3.054q.0772-.002.1545,0a2.9,2.9,0,0,1,3.0008,2.7958Q175.8809,27.0656,175.874,27.1947Zm-5.4416,34.43V34.747h4.8837V61.6247Z" style="fill:#4482fb"/><path d="M206.5837,34.747c-.111,1.9441-.2221,4.11-.2221,7.3857v15.605c0,6.1635-1.2223,9.94-3.832,12.2721-2.6091,2.4438-6.3862,3.2212-9.7734,3.2212-3.2212,0-6.7749-.7774-8.9411-2.2217l1.2223-3.72a15.1555,15.1555,0,0,0,7.8855,2.11c4.9974,0,8.6628-2.6091,8.6628-9.3847V57.016h-.111a9.595,9.595,0,0,1-8.5518,4.4977c-6.6639,0-11.44-5.6644-11.44-13.1057,0-9.1071,5.942-14.2717,12.1089-14.2717,4.6649,0,7.2192,2.4438,8.3852,4.6649h.111l.2221-4.0541ZM201.53,45.354a6.9575,6.9575,0,0,0-.2776-2.2211,7.0392,7.0392,0,0,0-6.83-5.1647c-4.6649,0-7.9965,3.9424-7.9965,10.1621,0,5.2757,2.6653,9.663,7.941,9.663a7.1449,7.1449,0,0,0,6.7749-4.9981,8.5009,8.5009,0,0,0,.3887-2.6091Z" style="fill:#4482fb"/><path d="M214.4691,22.1973h4.8837v16.77h.111a9.08,9.08,0,0,1,3.4989-3.4433,10.0576,10.0576,0,0,1,4.9981-1.3882c3.6092,0,9.3847,2.2217,9.3847,11.4954v15.993h-4.887V46.1869c0-4.3318-1.61-7.9965-6.2217-7.9965a7.02,7.02,0,0,0-6.5522,4.8837,5.9031,5.9031,0,0,0-.3345,2.3321V61.6213h-4.881Z" style="fill:#4482fb"/><path d="M250.9536,27.0282V34.747h7v3.721h-7V52.9618c0,3.3316.944,5.2182,3.6648,5.2182a10.8721,10.8721,0,0,0,2.8325-.3345l.2221,3.6648a11.963,11.963,0,0,1-4.3318.669,6.7744,6.7744,0,0,1-5.275-2.0545c-1.3888-1.4437-1.8886-3.832-1.8886-6.997V38.468h-4.1645V34.747H246.18V28.3053Z" style="fill:#4482fb"/><path d="M277.1649,34.747l3.5544,13.6609c.7774,2.9991,1.4992,5.7755,1.999,8.5525h.1666c.6108-2.7215,1.4992-5.6089,2.3877-8.4963L289.66,34.75h4.109l4.1652,13.4388c.9995,3.2212,1.7769,6.0531,2.3877,8.7746h.1666a80.8484,80.8484,0,0,1,2.0552-8.719L306.3746,34.75h4.8315l-8.6628,26.8776H298.1l-4.11-12.828a89.5315,89.5315,0,0,1-2.3877-8.8308h-.111a79.4922,79.4922,0,0,1-2.4432,8.885L284.7172,61.626H280.275l-8.1082-26.8776Z" style="fill:#4482fb"/><path d="M339.8613,47.9638c0,9.9406-6.886,14.2717-13.38,14.2717-7.2747,0-12.8835-5.3312-12.8835-13.8275,0-8.996,5.8872-14.2717,13.3278-14.2717C334.6411,34.1363,339.8613,39.7451,339.8613,47.9638Zm-21.3243.2776c0,5.8872,3.3871,10.3293,8.1618,10.3293,4.6649,0,8.1618-4.3873,8.1618-10.44,0-4.5532-2.2746-10.3287-8.0521-10.3287s-8.2715,5.3312-8.2715,10.44Z" style="fill:#4482fb"/><path d="M346.0254,43.1329c0-3.1657-.0555-5.8872-.2221-8.3859h4.2756l.1666,5.2757h.2221c1.2223-3.6092,4.1652-5.8872,7.4412-5.8872a5.2851,5.2851,0,0,1,1.3888.1666v4.6094a7.3461,7.3461,0,0,0-1.6631-.1659c-3.4427,0-5.8872,2.6091-6.5528,6.2752a13.7529,13.7529,0,0,0-.2221,2.2746V61.6227h-4.8308Z" style="fill:#4482fb"/><path d="M369.2376,47.0753h.1111c.669-.944,1.61-2.11,2.3876-3.054l7.8855-9.2743h5.8872L375.1242,45.8,386.9527,61.626h-5.942l-9.2743-12.8829-2.4987,2.777V61.6267h-4.8315V22.1973h4.8315Z" style="fill:#4482fb"/><path d="M389.7846,56.6266a12.8,12.8,0,0,0,6.4418,1.9441c3.5537,0,5.2182-1.7775,5.2182-3.9986,0-2.3321-1.3888-3.6092-4.9981-4.9426-4.8315-1.7213-7.1081-4.3866-7.1081-7.6078,0-4.3311,3.4982-7.8855,9.2736-7.8855a13.4073,13.4073,0,0,1,6.6083,1.6665l-1.2216,3.5537a10.46,10.46,0,0,0-5.4978-1.5547c-2.8874,0-4.4977,1.6658-4.4977,3.6648,0,2.2217,1.61,3.2212,5.1085,4.5539,4.6649,1.7769,7.0526,4.11,7.0526,8.1076,0,4.72-3.6648,8.0521-10.051,8.0521a15.3274,15.3274,0,0,1-7.5523-1.8324Z" style="fill:#4482fb"/><path d="M412.4421,22.1973h4.887v16.77h.1111a9.0734,9.0734,0,0,1,3.4982-3.4433,10.0591,10.0591,0,0,1,4.9981-1.3882c3.6093,0,9.3847,2.2217,9.3847,11.4954v15.993h-4.8837V46.1869c0-4.3318-1.611-7.9965-6.2217-7.9965a7.02,7.02,0,0,0-6.5562,4.8837,5.9163,5.9163,0,0,0-.3345,2.3321V61.6213h-4.887Z" style="fill:#4482fb"/><path d="M467.5856,47.9638c0,9.9406-6.886,14.2717-13.38,14.2717-7.2747,0-12.8835-5.3312-12.8835-13.8275,0-8.996,5.8872-14.2717,13.3278-14.2717C462.3654,34.1363,467.5856,39.7451,467.5856,47.9638Zm-21.3243.2776c0,5.8872,3.3871,10.3293,8.1618,10.3293,4.6649,0,8.1618-4.3873,8.1618-10.44,0-4.5532-2.2746-10.3287-8.0521-10.3287S446.2613,43.1329,446.2613,48.2414Z" style="fill:#4482fb"/><path d="M473.75,43.525c0-3.4433-.1111-6.2217-.2221-8.7746h4.3866l.2221,4.6094h.1111a10.5627,10.5627,0,0,1,9.552-5.2182c6.4973,0,11.3837,5.4978,11.3837,13.6609,0,9.663-5.8872,14.4383-12.2165,14.4383a9.4268,9.4268,0,0,1-8.2748-4.22h-.1111V72.6257H473.75Zm4.8308,7.1636a11.0036,11.0036,0,0,0,.2221,1.999,7.5416,7.5416,0,0,0,7.33,5.72c5.1646,0,8.1618-4.2207,8.1618-10.3848,0-5.3868-2.8325-9.9955-7.9972-9.9955a7.7985,7.7985,0,0,0-7.3857,6.0531,7.9241,7.9241,0,0,0-.3345,1.999Z" style="fill:#4482fb"/><path d="M67.6978,0H0V84.9091H84.9091V17.2113A17.2113,17.2113,0,0,0,67.6978,0Zm-43.93,61.6247H18.8838V34.747h4.887ZM21.2132,30.1938a2.9061,2.9061,0,0,1-2.9448-2.8669q-.0009-.0661.0012-.1322a2.9777,2.9777,0,0,1,2.8994-3.054q.0776-.002.1552,0a3.0272,3.0272,0,1,1-.0486,6.0542ZM59.1949,61.6247H54.7521l-4.107-12.828a89.7662,89.7662,0,0,1-2.3883-8.8308h-.1111a79.5333,79.5333,0,0,1-2.4432,8.885L41.3715,61.6233H36.9286L28.8224,34.747H33.82L37.3742,48.408c.7774,2.9991,1.4992,5.7755,1.999,8.5518H39.54c.6108-2.7208,1.4992-5.6082,2.3883-8.4963l4.3866-13.7144h4.11l4.1645,13.4388c1,3.2212,1.7775,6.0531,2.3883,8.7739h.1666a80.86,80.86,0,0,1,2.0511-8.72l3.832-13.4943h4.8308Z" style="fill:#4482fb"/></g></g></svg>